<svg xmlns="http://www.w3.org/2000/svg" xml:space="preserve" width="6.72in" height="6.72in" style="shape-rendering:geometricPrecision; text-rendering:geometricPrecision; image-rendering:optimizeQuality; fill-rule:evenodd; clip-rule:evenodd"
viewBox="0 0 6720 6720"
 xmlns:xlink="http://www.w3.org/1999/xlink">
 <defs>
  <style type="text/css">
   <![CDATA[
    .fil1 {fill:none}
    .fil0 {fill:black;fill-rule:nonzero}
   ]]>
  </style>
 </defs>
 <g id="Layer_x0020_1">
  <metadata id="CorelCorpID_0Corel-Layer"/>
  <path class="fil0" d="M1962 3209l0 -229 992 -559 0 244 -787 431 787 435 0 244 -992 -566zm2795 0l-992 566 0 -244 786 -435 -786 -431 0 -244 992 559 0 229z"/>
  <path class="fil0" d="M880 1270l4960 0c44,0 80,36 80,80l0 3495c0,44 -36,80 -80,80l-4960 0c-44,0 -80,-36 -80,-80l0 -3495c0,-44 36,-80 80,-80zm4880 160l-4800 0 0 3335 4800 0 0 -3335z"/>
  <path class="fil0" d="M2894 4766l932 0c44,0 80,36 80,80l0 524c0,44 -36,80 -80,80l-932 0c-44,0 -80,-36 -80,-80l0 -524c0,-44 36,-80 80,-80zm852 160l-772 0 0 364 772 0 0 -364z"/>
  <path class="fil0" d="M2122 5290c-44,0 -80,36 -80,80 0,44 36,80 80,80l2476 0c44,0 80,-36 80,-80 0,-44 -36,-80 -80,-80l-2476 0z"/>
 </g>
 <rect class="fil1" width="6720" height="6720"/>
</svg>
